<?xml version="1.0" standalone="no"?>
<!DOCTYPE svg PUBLIC "-//W3C//DTD SVG 20010904//EN"
 "http://www.w3.org/TR/2001/REC-SVG-20010904/DTD/svg10.dtd">
<svg version="1.0" xmlns="http://www.w3.org/2000/svg"
 width="296.000000pt" height="296.000000pt" viewBox="0 0 296.000000 296.000000"
 preserveAspectRatio="xMidYMid meet">
<metadata>
Created by potrace 1.14, written by Peter Selinger 2001-2017
</metadata>
<g transform="translate(0.000000,296.000000) scale(0.100000,-0.100000)"
fill="#000000" stroke="none">
<path d="M1687 2907 c-33 -50 -44 -150 -20 -179 6 -7 14 -29 18 -48 4 -19 13
-54 21 -78 25 -75 13 -93 -33 -50 -13 12 -23 16 -23 10 0 -7 -6 -12 -14 -12
-7 0 -19 -7 -26 -15 -20 -24 -93 -30 -124 -10 -27 18 -35 17 -40 -7 -8 -37
-28 -69 -51 -80 -16 -7 -29 -24 -35 -46 -9 -35 -75 -106 -90 -97 -4 3 -13 -2
-20 -10 -6 -7 -18 -11 -25 -9 -7 3 -31 -12 -52 -33 -21 -22 -46 -42 -55 -46
-10 -3 -18 -14 -19 -24 0 -10 -2 -36 -3 -58 -2 -39 41 -146 64 -160 16 -10 12
-81 -6 -96 -8 -7 -15 -26 -14 -43 1 -17 1 -33 0 -36 -9 -27 -12 -66 -12 -194
0 -144 -1 -151 -26 -188 -14 -22 -40 -45 -57 -53 -36 -14 -115 -16 -115 -2 0
5 -5 7 -12 5 -18 -6 -53 34 -54 62 -2 84 1 79 -56 77 -34 -1 -53 -7 -54 -14
-3 -29 -5 -31 -16 -29 -7 1 -18 5 -25 9 -13 8 -46 -20 -38 -33 3 -5 0 -12 -6
-15 -16 -10 18 -30 78 -45 36 -9 53 -19 57 -33 2 -10 11 -17 18 -14 7 2 25 -2
40 -10 15 -7 30 -13 33 -13 19 2 85 -25 85 -35 0 -7 -9 -24 -20 -38 -11 -14
-20 -30 -20 -36 0 -6 -4 -11 -8 -11 -5 0 -15 -15 -24 -32 -14 -30 -14 -35 3
-58 16 -23 21 -41 34 -124 2 -15 8 -33 13 -40 5 -6 13 -24 17 -41 11 -40 15
-205 6 -205 -4 0 -13 -12 -20 -27 -11 -24 -9 -29 13 -50 24 -22 30 -37 27 -73
-5 -58 -10 -82 -25 -104 -17 -27 -15 -108 3 -114 6 -2 11 -13 11 -24 0 -10 16
-34 35 -52 46 -44 92 -43 132 4 34 41 53 77 45 85 -3 3 -7 14 -9 23 -2 14 4
18 25 17 31 -1 92 -15 92 -20 0 -3 -8 -19 -18 -37 -39 -71 -42 -86 -26 -102 8
-9 15 -18 14 -21 -2 -36 4 -45 46 -65 33 -15 49 -18 54 -10 4 6 11 10 16 9 13
-4 54 11 54 19 0 4 11 20 24 35 18 21 23 38 21 64 -1 20 1 50 6 67 4 17 11 51
14 76 7 46 17 60 47 60 10 0 19 11 23 30 4 16 5 31 4 32 -1 2 3 13 9 25 7 12
15 46 18 75 8 72 8 72 16 79 5 3 10 20 12 37 3 31 34 77 44 68 2 -3 14 -1 26
4 13 4 38 11 57 14 53 9 72 13 99 24 14 5 39 8 55 6 56 -8 181 -5 206 4 14 6
31 17 38 26 17 21 28 136 12 136 -6 0 -11 5 -11 10 0 21 -36 47 -120 87 -67
32 -94 40 -125 37 -59 -5 -105 -15 -105 -23 0 -12 -69 -11 -76 1 -11 18 -14
119 -5 137 6 9 4 23 -5 36 -7 11 -16 45 -19 75 -6 50 -4 59 24 100 20 31 31
62 34 95 5 55 15 85 27 85 5 0 6 8 3 18 -7 29 14 72 37 72 11 0 20 4 20 9 0 5
15 18 33 30 17 11 28 21 24 21 -4 0 -3 9 3 20 8 15 6 21 -10 30 -25 14 -25 25
0 50 16 16 19 29 15 60 -4 35 -2 40 15 40 11 0 20 4 20 8 0 4 18 27 41 49 33
34 45 40 62 34 35 -13 56 -52 62 -115 2 -32 9 -64 15 -71 6 -7 10 -17 9 -21
-4 -26 3 -35 25 -32 13 1 35 -3 49 -11 35 -19 72 -7 87 28 19 47 -4 140 -40
158 -22 11 -76 110 -86 158 -5 25 -33 64 -60 81 -16 11 -24 11 -45 0 -32 -16
-80 -12 -95 9 -7 9 -12 32 -12 52 0 55 -29 107 -73 132 -37 21 -38 23 -33 64
5 35 2 45 -15 61 -14 13 -21 31 -21 58 0 28 -5 41 -17 45 -20 8 -43 28 -43 38
0 3 -14 19 -30 34 -41 37 -49 85 -21 138 11 22 17 43 14 47 -13 12 -31 5 -46
-17z"/>
</g>
</svg>
